<?xml version="1.0" encoding="utf-8"?>
<!-- Generator: Adobe Illustrator 19.0.1, SVG Export Plug-In . SVG Version: 6.00 Build 0)  -->
<svg version="1.1" id="Capa_1" xmlns="http://www.w3.org/2000/svg" xmlns:xlink="http://www.w3.org/1999/xlink" x="0px" y="0px"
	 viewBox="-274 273 15 15" style="enable-background:new -274 273 15 15;" xml:space="preserve">
<style type="text/css">
	.st0{fill:#FD3C31;}
</style>
<g id="Close">
	<path class="st0" d="M-264.7,280.5l5.3-5.3c0.5-0.5,0.5-1.3,0-1.8c-0.5-0.5-1.3-0.5-1.8,0l-5.3,5.3l-5.3-5.3
		c-0.5-0.5-1.3-0.5-1.8,0c-0.5,0.5-0.5,1.3,0,1.8l5.3,5.3l-5.3,5.3c-0.5,0.5-0.5,1.3,0,1.8c0.5,0.5,1.3,0.5,1.8,0l5.3-5.3l5.3,5.3
		c0.5,0.5,1.3,0.5,1.8,0c0.5-0.5,0.5-1.3,0-1.8L-264.7,280.5z"/>
</g>
</svg>
