<?xml version="1.0" encoding="utf-8"?>
<!-- Generator: Adobe Illustrator 16.2.0, SVG Export Plug-In . SVG Version: 6.00 Build 0)  -->
<!DOCTYPE svg PUBLIC "-//W3C//DTD SVG 1.1//EN" "http://www.w3.org/Graphics/SVG/1.1/DTD/svg11.dtd">
<svg version="1.1" id="Capa_1" xmlns="http://www.w3.org/2000/svg" xmlns:xlink="http://www.w3.org/1999/xlink" x="0px" y="0px"
	 width="19.582px" height="23.779px" viewBox="0 0 19.582 23.779" enable-background="new 0 0 19.582 23.779" xml:space="preserve">
<g>
	<g>
		<path fill="#FFFFFF" d="M16.532,15.266l-2.935-1.351l-1.41-1.189l-2.248,2.236l1.004,6.712c0.004,0.022-0.002,0.047-0.017,0.064
			l-1.063,1.457c-0.017,0.022-0.044,0.035-0.072,0.035s-0.056-0.013-0.071-0.035l-1.063-1.457c-0.015-0.019-0.021-0.042-0.017-0.064
			l1.004-6.712l-2.248-2.236l-1.41,1.189l-2.935,1.351c-0.435,0.179-0.901,0.494-1.077,0.919c0,0-3.189,7.593-1.461,7.593h18.555
			c1.729,0-1.461-7.593-1.461-7.593C17.42,15.734,16.965,15.445,16.532,15.266z"/>
		<path fill="#FFFFFF" d="M9.791,12.684c3,0,5.239-2.796,5.291-7.484C15.113,1.947,13.564,0,9.791,0S4.468,1.946,4.5,5.2
			C4.552,9.889,6.791,12.684,9.791,12.684z"/>
	</g>
</g>
</svg>
