<?xml version="1.0" encoding="utf-8"?>
<!-- Generator: Adobe Illustrator 16.2.0, SVG Export Plug-In . SVG Version: 6.00 Build 0)  -->
<!DOCTYPE svg PUBLIC "-//W3C//DTD SVG 1.1//EN" "http://www.w3.org/Graphics/SVG/1.1/DTD/svg11.dtd">
<svg version="1.1" id="Capa_1" xmlns="http://www.w3.org/2000/svg" xmlns:xlink="http://www.w3.org/1999/xlink" x="0px" y="0px"
	 width="19.621px" height="23.825px" viewBox="0 0 19.621 23.825" enable-background="new 0 0 19.621 23.825" xml:space="preserve">
<g>
	<g>
		<path fill="#787878" d="M16.563,15.296l-2.938-1.354l-1.412-1.19l-2.253,2.239l1.005,6.724c0.004,0.024-0.002,0.048-0.017,0.067
			l-1.064,1.459c-0.018,0.021-0.045,0.035-0.072,0.035c-0.029,0-0.056-0.014-0.072-0.035l-1.066-1.459
			c-0.014-0.021-0.02-0.043-0.016-0.067l1.005-6.724l-2.253-2.239l-1.411,1.19l-2.938,1.354c-0.437,0.178-0.904,0.494-1.082,0.921
			c0,0-3.194,7.606-1.461,7.606h18.59c1.73,0-1.465-7.606-1.465-7.606C17.452,15.763,16.997,15.473,16.563,15.296z"/>
		<path fill="#787878" d="M9.809,12.709c3.004,0,5.25-2.802,5.301-7.499C15.141,1.951,13.588,0,9.809,0
			c-3.781,0-5.334,1.95-5.302,5.21C4.559,9.908,6.802,12.709,9.809,12.709z"/>
	</g>
</g>
</svg>
