<?xml version="1.0" encoding="iso-8859-1"?>
<!-- Generator: Adobe Illustrator 16.2.0, SVG Export Plug-In . SVG Version: 6.00 Build 0)  -->
<!DOCTYPE svg PUBLIC "-//W3C//DTD SVG 1.1//EN" "http://www.w3.org/Graphics/SVG/1.1/DTD/svg11.dtd">
<svg version="1.1" id="Layer_1" xmlns="http://www.w3.org/2000/svg" xmlns:xlink="http://www.w3.org/1999/xlink" x="0px" y="0px"
	 width="20px" height="20px" viewBox="0 0 20 20" style="enable-background:new 0 0 20 20;" xml:space="preserve">
<g>
	<path style="fill:#DD3B3B;" d="M9.998,0.4C4.698,0.4,0.4,4.697,0.4,9.997c0,5.306,4.297,9.603,9.598,9.603
		c5.305,0,9.602-4.297,9.602-9.603C19.6,4.697,15.303,0.4,9.998,0.4L9.998,0.4z M9.998,16.126c-0.75,0-1.262-0.578-1.262-1.328
		c0-0.769,0.535-1.327,1.262-1.327c0.773,0,1.266,0.559,1.266,1.327C11.264,15.548,10.771,16.126,9.998,16.126L9.998,16.126z
		 M10.498,11.057c-0.191,0.651-0.793,0.664-0.997,0c-0.23-0.767-1.05-3.668-1.05-5.555c0-2.488,3.113-2.5,3.113,0
		C11.561,7.4,10.697,10.376,10.498,11.057L10.498,11.057z M10.498,11.057"/>
</g>
</svg>
