<?xml version="1.0" encoding="utf-8"?>
<!-- Generator: Adobe Illustrator 16.2.0, SVG Export Plug-In . SVG Version: 6.00 Build 0)  -->
<!DOCTYPE svg PUBLIC "-//W3C//DTD SVG 1.1//EN" "http://www.w3.org/Graphics/SVG/1.1/DTD/svg11.dtd">
<svg version="1.1" id="Layer_1" xmlns="http://www.w3.org/2000/svg" xmlns:xlink="http://www.w3.org/1999/xlink" x="0px" y="0px"
	 width="19.952px" height="17.101px" viewBox="0 0 19.952 17.101" enable-background="new 0 0 19.952 17.101" xml:space="preserve">
<g>
	<g>
		<path fill="#CDCDCD" d="M15.32,9.976h-0.712c-0.104,0-0.19,0.032-0.256,0.101c-0.067,0.065-0.101,0.151-0.101,0.255v3.563
			c0,0.49-0.175,0.908-0.523,1.259c-0.349,0.349-0.769,0.522-1.258,0.522H3.207c-0.49,0-0.91-0.174-1.258-0.522
			c-0.349-0.351-0.523-0.769-0.523-1.259V4.631c0-0.49,0.175-0.909,0.523-1.258S2.717,2.85,3.207,2.85h7.838
			c0.104,0,0.189-0.033,0.255-0.1c0.068-0.067,0.102-0.152,0.102-0.256V1.781c0-0.104-0.033-0.189-0.102-0.256
			c-0.065-0.067-0.15-0.101-0.255-0.101H3.207c-0.884,0-1.639,0.313-2.266,0.941C0.313,2.993,0,3.749,0,4.631v9.264
			c0,0.883,0.313,1.64,0.941,2.266c0.627,0.627,1.382,0.94,2.266,0.94h9.264c0.883,0,1.639-0.313,2.265-0.94
			c0.628-0.626,0.94-1.383,0.94-2.266v-3.563c0-0.104-0.032-0.189-0.099-0.255C15.51,10.008,15.424,9.976,15.32,9.976z"/>
		<path fill="#CDCDCD" d="M19.741,0.211C19.599,0.07,19.433,0,19.24,0h-5.701c-0.193,0-0.36,0.07-0.502,0.211
			c-0.141,0.141-0.211,0.308-0.211,0.501c0,0.193,0.07,0.36,0.211,0.501l1.96,1.959l-7.259,7.26
			c-0.075,0.073-0.111,0.159-0.111,0.256s0.037,0.182,0.111,0.255l1.27,1.27c0.074,0.075,0.159,0.112,0.255,0.112
			c0.097,0,0.182-0.037,0.256-0.112l7.26-7.258l1.959,1.959c0.142,0.141,0.309,0.212,0.502,0.212s0.36-0.071,0.501-0.212
			s0.211-0.308,0.211-0.501v-5.7C19.952,0.52,19.881,0.352,19.741,0.211z"/>
	</g>
</g>
</svg>
