<?xml version="1.0" encoding="utf-8"?>
<!-- Generator: Adobe Illustrator 16.2.0, SVG Export Plug-In . SVG Version: 6.00 Build 0)  -->
<!DOCTYPE svg PUBLIC "-//W3C//DTD SVG 1.1//EN" "http://www.w3.org/Graphics/SVG/1.1/DTD/svg11.dtd">
<svg version="1.1" id="Layer_1" xmlns="http://www.w3.org/2000/svg" xmlns:xlink="http://www.w3.org/1999/xlink" x="0px" y="0px"
	 width="24px" height="24px" viewBox="0 0 24 24" enable-background="new 0 0 24 24" xml:space="preserve">
<g id="Ellipse_1_1_" enable-background="new    ">
	<g id="Ellipse_1">
		<g>
			<path fill="#787878" d="M22.565,7.206h-8.16c-0.796,0-1.44,0.645-1.44,1.44v13.92c0,0.795,0.645,1.439,1.44,1.439h8.16
				c0.795,0,1.439-0.645,1.439-1.439V8.646C24.005,7.85,23.36,7.206,22.565,7.206z M17.285,8.166h2.4v0.48h-2.4V8.166z
				 M18.485,23.525c-0.397,0-0.721-0.322-0.721-0.721c0-0.397,0.323-0.72,0.721-0.72s0.72,0.322,0.72,0.72
				C19.205,23.203,18.883,23.525,18.485,23.525z M22.565,19.686c0,0.795-0.646,1.439-1.44,1.439h-5.28
				c-0.795,0-1.439-0.645-1.439-1.439v-9.12c0-0.795,0.645-1.44,1.439-1.44h5.28c0.795,0,1.44,0.645,1.44,1.44V19.686z"/>
		</g>
	</g>
</g>
<g id="Ellipse_2_1_" enable-background="new    ">
	<g id="Ellipse_2">
		<g>
			<path fill="#787878" d="M16.737,22.497c0.359-0.108,0.656-0.35,0.838-0.67C17.389,22.128,17.085,22.384,16.737,22.497z
				 M16.325,0.006H1.446c-0.795,0-1.44,0.645-1.44,1.44v19.679c0,0.795,0.645,1.44,1.44,1.44h10.56v-3.36h-8.64
				c-0.795,0-1.44-0.645-1.44-1.44V3.366c0-0.795,0.645-1.44,1.44-1.44h10.559c0.796,0,1.44,0.645,1.44,1.44v2.88h2.399v-4.8
				C17.765,0.65,17.12,0.006,16.325,0.006z M8.646,20.165c0.266,0,0.48,0.215,0.48,0.48c0,0.265-0.214,0.479-0.48,0.479
				s-0.48-0.215-0.48-0.479C8.166,20.38,8.38,20.165,8.646,20.165z M9.605,0.966h-1.92v-0.48h1.92V0.966z M16.37,22.565
				c0.081,0,0.161-0.012,0.239-0.029c-0.092,0.019-0.187,0.029-0.284,0.029C16.34,22.565,16.354,22.565,16.37,22.565z
				 M17.765,21.245c0-0.038,0-0.081,0-0.12c0,0.256-0.071,0.493-0.189,0.702C17.692,21.639,17.765,21.438,17.765,21.245z
				 M14.52,19.063c-0.155,0.068-0.308,0.108-0.43,0.128C14.226,19.171,14.372,19.128,14.52,19.063z"/>
		</g>
	</g>
</g>
</svg>
