<?xml version="1.0" encoding="utf-8"?>
<!-- Generator: Adobe Illustrator 16.2.0, SVG Export Plug-In . SVG Version: 6.00 Build 0)  -->
<!DOCTYPE svg PUBLIC "-//W3C//DTD SVG 1.1//EN" "http://www.w3.org/Graphics/SVG/1.1/DTD/svg11.dtd">
<svg version="1.1" id="Layer_1" xmlns="http://www.w3.org/2000/svg" xmlns:xlink="http://www.w3.org/1999/xlink" x="0px" y="0px"
	 width="24px" height="24px" viewBox="0 0 24 24" enable-background="new 0 0 24 24" xml:space="preserve">
<g id="Ellipse_1_1_" enable-background="new    ">
	<g id="Ellipse_1">
		<g>
			<path fill="#FFFFFF" d="M22.564,7.206h-8.16c-0.795,0-1.439,0.645-1.439,1.44v13.92c0,0.795,0.645,1.438,1.439,1.438h8.16
				c0.795,0,1.439-0.646,1.439-1.438V8.646C24.005,7.85,23.359,7.206,22.564,7.206z M17.285,8.166h2.4v0.48h-2.4V8.166z
				 M18.484,23.525c-0.396,0-0.721-0.322-0.721-0.721c0-0.397,0.323-0.721,0.721-0.721c0.398,0,0.721,0.322,0.721,0.721
				S18.883,23.525,18.484,23.525z M22.564,19.686c0,0.795-0.646,1.439-1.439,1.439h-5.279c-0.796,0-1.439-0.645-1.439-1.439v-9.12
				c0-0.795,0.645-1.44,1.439-1.44h5.279c0.795,0,1.439,0.645,1.439,1.44V19.686z"/>
		</g>
	</g>
</g>
<g id="Ellipse_2_1_" enable-background="new    ">
	<g id="Ellipse_2">
		<g>
			<path fill="#FFFFFF" d="M16.736,22.497c0.359-0.108,0.656-0.351,0.839-0.67C17.389,22.128,17.085,22.384,16.736,22.497z
				 M16.325,0.006H1.446c-0.795,0-1.44,0.645-1.44,1.44v19.679c0,0.795,0.645,1.439,1.44,1.439h10.56v-3.359h-8.64
				c-0.795,0-1.44-0.645-1.44-1.439V3.366c0-0.795,0.645-1.44,1.44-1.44h10.559c0.796,0,1.44,0.645,1.44,1.44v2.88h2.398v-4.8
				C17.766,0.65,17.12,0.006,16.325,0.006z M8.646,20.165c0.266,0,0.48,0.215,0.48,0.479c0,0.266-0.214,0.479-0.48,0.479
				s-0.48-0.215-0.48-0.479S8.38,20.165,8.646,20.165z M9.605,0.966h-1.92v-0.48h1.92V0.966z M16.37,22.564
				c0.081,0,0.161-0.012,0.239-0.028c-0.092,0.019-0.188,0.028-0.284,0.028C16.34,22.564,16.354,22.564,16.37,22.564z
				 M17.766,21.245c0-0.038,0-0.081,0-0.12c0,0.256-0.072,0.493-0.189,0.702C17.691,21.639,17.766,21.438,17.766,21.245z
				 M14.52,19.063c-0.154,0.068-0.308,0.108-0.43,0.129C14.227,19.171,14.372,19.128,14.52,19.063z"/>
		</g>
	</g>
</g>
</svg>
