<?xml version="1.0" encoding="iso-8859-1"?>
<!-- Generator: Adobe Illustrator 16.0.0, SVG Export Plug-In . SVG Version: 6.00 Build 0)  -->
<!DOCTYPE svg PUBLIC "-//W3C//DTD SVG 1.1//EN" "http://www.w3.org/Graphics/SVG/1.1/DTD/svg11.dtd">
<svg version="1.1" id="Layer_1" xmlns="http://www.w3.org/2000/svg" xmlns:xlink="http://www.w3.org/1999/xlink" x="0px" y="0px"
	 width="13px" height="12px" viewBox="0 0 13 12" style="enable-background:new 0 0 13 12;" xml:space="preserve">
<path style="fill-rule:evenodd;clip-rule:evenodd;fill:#EF4A63;" d="M11.843,7.44c0,0-0.963,1.343-2.21,2.4
	C8.204,11.052,6.499,12,6.499,12s-1.704-0.948-3.132-2.16c-1.246-1.058-2.209-2.4-2.209-2.4s-1.231-1.487-1.154-3.566
	c0.071-1.915,1.385-3.018,1.385-3.018S2.39-0.197,3.993,0.033c1.655,0.237,2.506,1.714,2.506,1.714v0.001
	c0,0,0.852-1.477,2.507-1.714c1.604-0.23,2.606,0.823,2.606,0.823s1.315,1.102,1.385,3.018C13.074,5.953,11.843,7.44,11.843,7.44z"
	/>
</svg>
