<?xml version="1.0" encoding="utf-8"?>
<!-- Generator: Adobe Illustrator 19.0.1, SVG Export Plug-In . SVG Version: 6.00 Build 0)  -->
<svg version="1.2" baseProfile="tiny" id="Capa_1" xmlns="http://www.w3.org/2000/svg" xmlns:xlink="http://www.w3.org/1999/xlink"
	 x="0px" y="0px" viewBox="-292 387.1 26.2 18.9" xml:space="preserve">
<g>
	<path fill="#FFFFFF" d="M-290.6,399.6h12.6c0.2,0,0.3-0.2,0.3-0.3v-10.2c0-0.6-0.5-1-1-1h-11.2c-0.6,0-1,0.5-1,1v10.2
		C-290.9,399.4-290.8,399.6-290.6,399.6z M-288,392.8c0-0.2,0.2-0.4,0.4-0.4h3.4v-1.2c0-0.4,0.5-0.6,0.7-0.3l2.9,2.9
		c0.2,0.2,0.2,0.4,0,0.6l-2.9,2.8c-0.3,0.3-0.7,0.1-0.7-0.3v-1.2h-3.4c-0.2,0-0.4-0.2-0.4-0.4V392.8L-288,392.8z M-286.6,402.4h-4.1
		c-0.2,0-0.3-0.2-0.3-0.3v-1c0-0.2,0.2-0.3,0.3-0.3h5.1C-286.1,401.1-286.5,401.7-286.6,402.4z M-267.1,400.7h-0.8v-4.6
		c0-0.5-0.2-1.1-0.5-1.5l-2.1-3.2c-0.5-0.8-1.4-1.2-2.3-1.2h-3.2c-0.4,0-0.7,0.3-0.7,0.7v9.8h-5.3c0.5,0.4,0.8,1,0.9,1.7h5.6
		c0.2-1.4,1.4-2.4,2.8-2.4s2.6,1.1,2.8,2.4h2.8c0.2,0,0.3-0.2,0.3-0.3v-1C-266.8,400.8-266.9,400.7-267.1,400.7z M-270.5,395.1h-4.3
		c-0.2,0-0.3-0.2-0.3-0.3v-2.4c0-0.2,0.2-0.3,0.3-0.3h2.6c0.1,0,0.2,0.1,0.3,0.1l1.7,2.4C-270.1,394.8-270.2,395.1-270.5,395.1z
		 M-283.8,400.7c-1.2,0-2.1,1-2.1,2.1c0,1.2,1,2.1,2.1,2.1c1.2,0,2.1-1,2.1-2.1C-281.7,401.6-282.6,400.7-283.8,400.7z
		 M-283.8,403.9c-0.6,0-1.1-0.5-1.1-1.1s0.5-1.1,1.1-1.1s1.1,0.5,1.1,1.1S-283.2,403.9-283.8,403.9z M-272.7,400.7
		c-1.2,0-2.1,1-2.1,2.1c0,1.2,1,2.1,2.1,2.1c1.2,0,2.1-1,2.1-2.1C-270.5,401.6-271.5,400.7-272.7,400.7z M-272.7,403.9
		c-0.6,0-1.1-0.5-1.1-1.1s0.5-1.1,1.1-1.1s1.1,0.5,1.1,1.1S-272.1,403.9-272.7,403.9z"/>
</g>
</svg>
