<?xml version="1.0" encoding="utf-8"?>
<!-- Generator: Adobe Illustrator 19.0.1, SVG Export Plug-In . SVG Version: 6.00 Build 0)  -->
<svg version="1.2" baseProfile="tiny" id="Capa_1" xmlns="http://www.w3.org/2000/svg" xmlns:xlink="http://www.w3.org/1999/xlink"
	 x="0px" y="0px" viewBox="-294 386.7 22.1 21.3" xml:space="preserve">
<g>
	<g>
		<path fill="#FFFFFF" d="M-288.4,391.4l8.1-2.2l-0.4-0.9c-0.3-0.6-1-0.8-1.5-0.5l-7.3,3.6C-289.5,391.4-288.4,391.4-288.4,391.4z"
			/>
		<path fill="#FFFFFF" d="M-277.8,389.2c-0.1,0-0.2,0-0.3,0l-1.9,0.5l-5.8,1.6h6.6h2.9l-0.4-1.3
			C-276.9,389.6-277.3,389.2-277.8,389.2z"/>
		<path fill="#FFFFFF" d="M-275.2,392.2h-0.3h-0.4h-0.4h-2.7h-9.9h-1.3h-1h-0.2h-0.7c-0.4,0-0.7,0.2-0.9,0.4
			c-0.1,0.1-0.2,0.3-0.2,0.4s0,0.2,0,0.3v0.1v1.3V406c0,0.6,0.5,1.1,1.1,1.1h16.9c0.6,0,1.1-0.5,1.1-1.1v-3.2h-6.8
			c-1.1,0-1.9-0.9-1.9-1.9v-1v-0.4v-0.4v-0.8c0-0.5,0.2-1,0.5-1.4c0.3-0.3,0.7-0.5,1.2-0.6c0.1,0,0.2,0,0.2,0h5.8h0.4h0.4h0.2v-3.1
			C-274,392.7-274.5,392.2-275.2,392.2z"/>
		<path fill="#FFFFFF" d="M-273.2,397.5c-0.1-0.1-0.2-0.2-0.4-0.2c-0.1,0-0.2-0.1-0.4-0.1l0,0l0,0h-0.4h-1.3h-5.1
			c-0.6,0-1.1,0.5-1.1,1.1v0.6v0.4v0.4v1.3c0,0.6,0.5,1.1,1.1,1.1h6.8l0,0c0.1,0,0.3,0,0.4-0.1c0.2-0.1,0.3-0.1,0.4-0.2
			c0.2-0.2,0.4-0.5,0.4-0.8v-2.5C-272.9,398-273,397.7-273.2,397.5z M-278.4,399.9c0,0.3-0.3,0.6-0.6,0.6h-0.4
			c-0.3,0-0.6-0.3-0.6-0.6v-0.4c0-0.2,0.1-0.3,0.2-0.4c0.1-0.1,0.2-0.1,0.4-0.1h0.1h0.3c0.3,0,0.6,0.3,0.6,0.6V399.9L-278.4,399.9z"
			/>
	</g>
</g>
</svg>
