<?xml version="1.0" encoding="utf-8"?>
<!-- Generator: Adobe Illustrator 16.0.0, SVG Export Plug-In . SVG Version: 6.00 Build 0)  -->
<svg version="1.2" baseProfile="tiny" id="Layer_1" xmlns="http://www.w3.org/2000/svg" xmlns:xlink="http://www.w3.org/1999/xlink"
	 x="0px" y="0px" width="20px" height="20px" viewBox="0 0 20 20" xml:space="preserve">
<path fill="#787878" d="M10.5,0.5C7,0.5,3.9,2.4,2.3,5.3L0,3v6.5h6.5L3.7,6.7C5,4.2,7.5,2.5,10.5,2.5c4.1,0,7.5,3.4,7.5,7.5
	c0,4.1-3.4,7.5-7.5,7.5c-3.3,0-6-2.1-7.1-5H1.3c1.1,4,4.8,7,9.2,7c5.3,0,9.5-4.3,9.5-9.5S15.7,0.5,10.5,0.5"/>
<polygon fill="#787878" points="9,5.5 9,10.6 13.7,13.4 14.5,12.1 10.5,9.7 10.5,5.5 "/>
</svg>
